<mxfile host="app.diagrams.net" modified="2024-03-26T12:11:40.614Z" agent="Mozilla/5.0 (Macintosh; Intel Mac OS X 10_15_7) AppleWebKit/537.36 (KHTML, like Gecko) Chrome/123.0.0.0 Safari/537.36" etag="-iIgPese31ilbmebuAI9" version="24.1.0" type="device">
  <diagram id="C5RBs43oDa-KdzZeNtuy" name="Page-1">
    <mxGraphModel dx="2295" dy="795" grid="1" gridSize="10" guides="1" tooltips="1" connect="1" arrows="1" fold="1" page="1" pageScale="1" pageWidth="827" pageHeight="1169" math="0" shadow="0">
      <root>
        <mxCell id="WIyWlLk6GJQsqaUBKTNV-0" />
        <mxCell id="WIyWlLk6GJQsqaUBKTNV-1" parent="WIyWlLk6GJQsqaUBKTNV-0" />
        <mxCell id="F6kOEsD1kym6dUDhs5XA-7" value="new hall call assigned" style="edgeStyle=orthogonalEdgeStyle;rounded=0;orthogonalLoop=1;jettySize=auto;html=1;exitX=0.5;exitY=0;exitDx=0;exitDy=0;" parent="WIyWlLk6GJQsqaUBKTNV-1" source="WIyWlLk6GJQsqaUBKTNV-6" edge="1">
          <mxGeometry x="0.0811" y="10" relative="1" as="geometry">
            <mxPoint x="360" y="90" as="targetPoint" />
            <Array as="points">
              <mxPoint x="220" y="60" />
            </Array>
            <mxPoint as="offset" />
          </mxGeometry>
        </mxCell>
        <mxCell id="WIyWlLk6GJQsqaUBKTNV-6" value="Idling&lt;br&gt;= no hall calls, no car calls" style="rhombus;whiteSpace=wrap;html=1;shadow=0;fontFamily=Helvetica;fontSize=12;align=center;strokeWidth=1;spacing=6;spacingTop=-4;" parent="WIyWlLk6GJQsqaUBKTNV-1" vertex="1">
          <mxGeometry x="-30" y="60" width="100" height="80" as="geometry" />
        </mxCell>
        <mxCell id="F6kOEsD1kym6dUDhs5XA-18" value="if arrived" style="edgeStyle=orthogonalEdgeStyle;rounded=0;orthogonalLoop=1;jettySize=auto;html=1;exitX=0.5;exitY=1;exitDx=0;exitDy=0;entryX=1;entryY=0.5;entryDx=0;entryDy=0;" parent="WIyWlLk6GJQsqaUBKTNV-1" source="F6kOEsD1kym6dUDhs5XA-0" target="F6kOEsD1kym6dUDhs5XA-17" edge="1">
          <mxGeometry relative="1" as="geometry" />
        </mxCell>
        <mxCell id="F6kOEsD1kym6dUDhs5XA-0" value="Moving" style="rhombus;whiteSpace=wrap;html=1;" parent="WIyWlLk6GJQsqaUBKTNV-1" vertex="1">
          <mxGeometry x="525" y="280" width="80" height="80" as="geometry" />
        </mxCell>
        <mxCell id="F6kOEsD1kym6dUDhs5XA-10" value="same floor" style="edgeStyle=orthogonalEdgeStyle;rounded=0;orthogonalLoop=1;jettySize=auto;html=1;entryX=1;entryY=0.5;entryDx=0;entryDy=0;" parent="WIyWlLk6GJQsqaUBKTNV-1" target="F6kOEsD1kym6dUDhs5XA-21" edge="1">
          <mxGeometry relative="1" as="geometry">
            <mxPoint x="525" y="30" as="targetPoint" />
            <mxPoint x="360" y="60" as="sourcePoint" />
            <Array as="points">
              <mxPoint x="360" y="180" />
              <mxPoint x="460" y="180" />
              <mxPoint x="460" y="680" />
            </Array>
          </mxGeometry>
        </mxCell>
        <mxCell id="F6kOEsD1kym6dUDhs5XA-11" value="other floor" style="edgeStyle=orthogonalEdgeStyle;rounded=0;orthogonalLoop=1;jettySize=auto;html=1;entryX=0.5;entryY=0;entryDx=0;entryDy=0;" parent="WIyWlLk6GJQsqaUBKTNV-1" target="F6kOEsD1kym6dUDhs5XA-0" edge="1">
          <mxGeometry x="0.1667" relative="1" as="geometry">
            <mxPoint x="520" y="140" as="targetPoint" />
            <mxPoint x="360" y="60" as="sourcePoint" />
            <Array as="points">
              <mxPoint x="360" y="40" />
              <mxPoint x="565" y="40" />
            </Array>
            <mxPoint as="offset" />
          </mxGeometry>
        </mxCell>
        <mxCell id="F6kOEsD1kym6dUDhs5XA-14" value="while not arrived" style="edgeStyle=orthogonalEdgeStyle;rounded=0;orthogonalLoop=1;jettySize=auto;html=1;exitX=1;exitY=0;exitDx=0;exitDy=0;entryX=1;entryY=1;entryDx=0;entryDy=0;" parent="WIyWlLk6GJQsqaUBKTNV-1" source="F6kOEsD1kym6dUDhs5XA-0" target="F6kOEsD1kym6dUDhs5XA-0" edge="1">
          <mxGeometry x="0.1232" y="10" relative="1" as="geometry">
            <Array as="points">
              <mxPoint x="585" y="270" />
              <mxPoint x="660" y="270" />
              <mxPoint x="660" y="360" />
              <mxPoint x="585" y="360" />
            </Array>
            <mxPoint as="offset" />
          </mxGeometry>
        </mxCell>
        <mxCell id="F6kOEsD1kym6dUDhs5XA-19" style="edgeStyle=orthogonalEdgeStyle;rounded=0;orthogonalLoop=1;jettySize=auto;html=1;exitX=0.5;exitY=1;exitDx=0;exitDy=0;entryX=0.5;entryY=1;entryDx=0;entryDy=0;" parent="WIyWlLk6GJQsqaUBKTNV-1" source="F6kOEsD1kym6dUDhs5XA-17" target="F6kOEsD1kym6dUDhs5XA-21" edge="1">
          <mxGeometry relative="1" as="geometry">
            <mxPoint x="250" y="620" as="targetPoint" />
          </mxGeometry>
        </mxCell>
        <mxCell id="F6kOEsD1kym6dUDhs5XA-17" value="- remove next_stop from queue, update next stop&lt;br&gt;- update current_floor and check if next_stop == current floor" style="rounded=0;whiteSpace=wrap;html=1;" parent="WIyWlLk6GJQsqaUBKTNV-1" vertex="1">
          <mxGeometry x="520" y="470" width="120" height="130" as="geometry" />
        </mxCell>
        <mxCell id="F6kOEsD1kym6dUDhs5XA-25" style="edgeStyle=orthogonalEdgeStyle;rounded=0;orthogonalLoop=1;jettySize=auto;html=1;exitX=0;exitY=0.5;exitDx=0;exitDy=0;entryX=1;entryY=0.5;entryDx=0;entryDy=0;" parent="WIyWlLk6GJQsqaUBKTNV-1" source="F6kOEsD1kym6dUDhs5XA-21" target="F6kOEsD1kym6dUDhs5XA-24" edge="1">
          <mxGeometry relative="1" as="geometry" />
        </mxCell>
        <mxCell id="F6kOEsD1kym6dUDhs5XA-26" value="if passenger in lift" style="edgeLabel;html=1;align=center;verticalAlign=middle;resizable=0;points=[];" parent="F6kOEsD1kym6dUDhs5XA-25" vertex="1" connectable="0">
          <mxGeometry x="-0.0778" y="-1" relative="1" as="geometry">
            <mxPoint as="offset" />
          </mxGeometry>
        </mxCell>
        <mxCell id="F6kOEsD1kym6dUDhs5XA-21" value="stopped" style="rhombus;whiteSpace=wrap;html=1;" parent="WIyWlLk6GJQsqaUBKTNV-1" vertex="1">
          <mxGeometry x="200" y="640" width="80" height="80" as="geometry" />
        </mxCell>
        <mxCell id="F6kOEsD1kym6dUDhs5XA-30" style="edgeStyle=orthogonalEdgeStyle;rounded=0;orthogonalLoop=1;jettySize=auto;html=1;exitX=1;exitY=0.5;exitDx=0;exitDy=0;" parent="WIyWlLk6GJQsqaUBKTNV-1" source="F6kOEsD1kym6dUDhs5XA-23" target="F6kOEsD1kym6dUDhs5XA-31" edge="1">
          <mxGeometry relative="1" as="geometry">
            <mxPoint x="150" y="510.66666666666674" as="targetPoint" />
          </mxGeometry>
        </mxCell>
        <mxCell id="F6kOEsD1kym6dUDhs5XA-23" value="&lt;u&gt;board&lt;/u&gt;&lt;br&gt;Remove passengers from floor and load in elevator, collect rewards" style="rounded=0;whiteSpace=wrap;html=1;" parent="WIyWlLk6GJQsqaUBKTNV-1" vertex="1">
          <mxGeometry x="-60" y="480" width="120" height="70" as="geometry" />
        </mxCell>
        <mxCell id="F6kOEsD1kym6dUDhs5XA-27" style="edgeStyle=orthogonalEdgeStyle;rounded=0;orthogonalLoop=1;jettySize=auto;html=1;exitX=0.5;exitY=0;exitDx=0;exitDy=0;entryX=0.5;entryY=1;entryDx=0;entryDy=0;" parent="WIyWlLk6GJQsqaUBKTNV-1" source="F6kOEsD1kym6dUDhs5XA-24" target="F6kOEsD1kym6dUDhs5XA-23" edge="1">
          <mxGeometry relative="1" as="geometry" />
        </mxCell>
        <mxCell id="F6kOEsD1kym6dUDhs5XA-28" value="if passenger on floor" style="edgeLabel;html=1;align=center;verticalAlign=middle;resizable=0;points=[];" parent="F6kOEsD1kym6dUDhs5XA-27" vertex="1" connectable="0">
          <mxGeometry x="0.3778" y="2" relative="1" as="geometry">
            <mxPoint x="2" y="36" as="offset" />
          </mxGeometry>
        </mxCell>
        <mxCell id="F6kOEsD1kym6dUDhs5XA-24" value="&lt;u&gt;disboard&lt;/u&gt;&lt;br&gt;remove passengers from lift, collect rewards" style="rounded=0;whiteSpace=wrap;html=1;" parent="WIyWlLk6GJQsqaUBKTNV-1" vertex="1">
          <mxGeometry x="-60" y="650" width="120" height="60" as="geometry" />
        </mxCell>
        <mxCell id="F6kOEsD1kym6dUDhs5XA-40" style="edgeStyle=orthogonalEdgeStyle;rounded=0;orthogonalLoop=1;jettySize=auto;html=1;exitX=1;exitY=0.75;exitDx=0;exitDy=0;entryX=0;entryY=0.5;entryDx=0;entryDy=0;" parent="WIyWlLk6GJQsqaUBKTNV-1" source="F6kOEsD1kym6dUDhs5XA-31" target="F6kOEsD1kym6dUDhs5XA-0" edge="1">
          <mxGeometry relative="1" as="geometry">
            <mxPoint x="260" y="340" as="targetPoint" />
          </mxGeometry>
        </mxCell>
        <mxCell id="F6kOEsD1kym6dUDhs5XA-41" value="if any next_stop" style="edgeLabel;html=1;align=center;verticalAlign=middle;resizable=0;points=[];" parent="F6kOEsD1kym6dUDhs5XA-40" vertex="1" connectable="0">
          <mxGeometry x="0.0955" y="-3" relative="1" as="geometry">
            <mxPoint y="30" as="offset" />
          </mxGeometry>
        </mxCell>
        <mxCell id="F6kOEsD1kym6dUDhs5XA-42" style="edgeStyle=orthogonalEdgeStyle;rounded=0;orthogonalLoop=1;jettySize=auto;html=1;exitX=0.5;exitY=0;exitDx=0;exitDy=0;" parent="WIyWlLk6GJQsqaUBKTNV-1" source="F6kOEsD1kym6dUDhs5XA-31" edge="1">
          <mxGeometry relative="1" as="geometry">
            <mxPoint x="150.33333333333348" y="370" as="targetPoint" />
          </mxGeometry>
        </mxCell>
        <mxCell id="F6kOEsD1kym6dUDhs5XA-43" value="if no next stop" style="edgeLabel;html=1;align=center;verticalAlign=middle;resizable=0;points=[];" parent="F6kOEsD1kym6dUDhs5XA-42" vertex="1" connectable="0">
          <mxGeometry x="0.2512" y="1" relative="1" as="geometry">
            <mxPoint y="1" as="offset" />
          </mxGeometry>
        </mxCell>
        <mxCell id="F6kOEsD1kym6dUDhs5XA-31" value="update destination queue, update next stop" style="whiteSpace=wrap;html=1;aspect=fixed;" parent="WIyWlLk6GJQsqaUBKTNV-1" vertex="1">
          <mxGeometry x="110" y="474.9966666666667" width="80" height="80" as="geometry" />
        </mxCell>
        <mxCell id="F6kOEsD1kym6dUDhs5XA-36" style="edgeStyle=orthogonalEdgeStyle;rounded=0;orthogonalLoop=1;jettySize=auto;html=1;" parent="WIyWlLk6GJQsqaUBKTNV-1" edge="1">
          <mxGeometry relative="1" as="geometry">
            <mxPoint y="630" as="targetPoint" />
            <mxPoint x="140" y="680" as="sourcePoint" />
            <Array as="points">
              <mxPoint x="140" y="630" />
            </Array>
          </mxGeometry>
        </mxCell>
        <mxCell id="F6kOEsD1kym6dUDhs5XA-37" value="if no" style="edgeLabel;html=1;align=center;verticalAlign=middle;resizable=0;points=[];" parent="F6kOEsD1kym6dUDhs5XA-36" vertex="1" connectable="0">
          <mxGeometry x="-0.0117" y="-3" relative="1" as="geometry">
            <mxPoint as="offset" />
          </mxGeometry>
        </mxCell>
        <mxCell id="F6kOEsD1kym6dUDhs5XA-38" style="edgeStyle=orthogonalEdgeStyle;rounded=0;orthogonalLoop=1;jettySize=auto;html=1;entryX=0.5;entryY=1;entryDx=0;entryDy=0;" parent="WIyWlLk6GJQsqaUBKTNV-1" target="F6kOEsD1kym6dUDhs5XA-31" edge="1">
          <mxGeometry relative="1" as="geometry">
            <mxPoint x="130" y="564.9966666666668" as="targetPoint" />
            <mxPoint y="604.33" as="sourcePoint" />
            <Array as="points">
              <mxPoint y="584" />
              <mxPoint x="150" y="584" />
            </Array>
          </mxGeometry>
        </mxCell>
        <mxCell id="F6kOEsD1kym6dUDhs5XA-39" value="if no" style="edgeLabel;html=1;align=center;verticalAlign=middle;resizable=0;points=[];" parent="F6kOEsD1kym6dUDhs5XA-38" vertex="1" connectable="0">
          <mxGeometry x="-0.0117" y="-3" relative="1" as="geometry">
            <mxPoint as="offset" />
          </mxGeometry>
        </mxCell>
        <mxCell id="F6kOEsD1kym6dUDhs5XA-44" style="edgeStyle=orthogonalEdgeStyle;rounded=0;orthogonalLoop=1;jettySize=auto;html=1;exitX=0;exitY=0;exitDx=0;exitDy=0;entryX=0;entryY=1;entryDx=0;entryDy=0;" parent="WIyWlLk6GJQsqaUBKTNV-1" source="WIyWlLk6GJQsqaUBKTNV-6" target="WIyWlLk6GJQsqaUBKTNV-6" edge="1">
          <mxGeometry relative="1" as="geometry">
            <Array as="points">
              <mxPoint x="-5" y="40" />
              <mxPoint x="-100" y="40" />
              <mxPoint x="-100" y="160" />
              <mxPoint x="-5" y="160" />
            </Array>
          </mxGeometry>
        </mxCell>
        <mxCell id="F6kOEsD1kym6dUDhs5XA-45" value="No new arrival" style="edgeLabel;html=1;align=center;verticalAlign=middle;resizable=0;points=[];" parent="F6kOEsD1kym6dUDhs5XA-44" vertex="1" connectable="0">
          <mxGeometry x="-0.0908" y="2" relative="1" as="geometry">
            <mxPoint y="32" as="offset" />
          </mxGeometry>
        </mxCell>
        <mxCell id="F6kOEsD1kym6dUDhs5XA-54" style="edgeStyle=orthogonalEdgeStyle;rounded=0;orthogonalLoop=1;jettySize=auto;html=1;exitX=1;exitY=0.5;exitDx=0;exitDy=0;entryX=0;entryY=0;entryDx=0;entryDy=0;" parent="WIyWlLk6GJQsqaUBKTNV-1" source="F6kOEsD1kym6dUDhs5XA-48" target="F6kOEsD1kym6dUDhs5XA-0" edge="1">
          <mxGeometry relative="1" as="geometry" />
        </mxCell>
        <mxCell id="F6kOEsD1kym6dUDhs5XA-48" value="add rest_floor to destination queue,&amp;nbsp;&lt;br&gt;update next stop" style="rounded=0;whiteSpace=wrap;html=1;" parent="WIyWlLk6GJQsqaUBKTNV-1" vertex="1">
          <mxGeometry x="190" y="210" width="120" height="60" as="geometry" />
        </mxCell>
        <mxCell id="F6kOEsD1kym6dUDhs5XA-50" style="edgeStyle=orthogonalEdgeStyle;rounded=0;orthogonalLoop=1;jettySize=auto;html=1;entryX=0.5;entryY=1;entryDx=0;entryDy=0;" parent="WIyWlLk6GJQsqaUBKTNV-1" target="WIyWlLk6GJQsqaUBKTNV-6" edge="1">
          <mxGeometry relative="1" as="geometry">
            <mxPoint x="30" y="310" as="targetPoint" />
            <mxPoint x="150" y="370" as="sourcePoint" />
          </mxGeometry>
        </mxCell>
        <mxCell id="F6kOEsD1kym6dUDhs5XA-51" value="if floor = rest_floor" style="edgeLabel;html=1;align=center;verticalAlign=middle;resizable=0;points=[];" parent="F6kOEsD1kym6dUDhs5XA-50" vertex="1" connectable="0">
          <mxGeometry x="0.2512" y="1" relative="1" as="geometry">
            <mxPoint y="1" as="offset" />
          </mxGeometry>
        </mxCell>
        <mxCell id="F6kOEsD1kym6dUDhs5XA-52" style="edgeStyle=orthogonalEdgeStyle;rounded=0;orthogonalLoop=1;jettySize=auto;html=1;entryX=0.5;entryY=1;entryDx=0;entryDy=0;" parent="WIyWlLk6GJQsqaUBKTNV-1" target="F6kOEsD1kym6dUDhs5XA-48" edge="1">
          <mxGeometry relative="1" as="geometry">
            <mxPoint x="170.33333333333348" y="390" as="targetPoint" />
            <mxPoint x="150" y="370" as="sourcePoint" />
          </mxGeometry>
        </mxCell>
        <mxCell id="F6kOEsD1kym6dUDhs5XA-53" value="if floor =/= rest_floor" style="edgeLabel;html=1;align=center;verticalAlign=middle;resizable=0;points=[];" parent="F6kOEsD1kym6dUDhs5XA-52" vertex="1" connectable="0">
          <mxGeometry x="0.2512" y="1" relative="1" as="geometry">
            <mxPoint x="1" y="-25" as="offset" />
          </mxGeometry>
        </mxCell>
        <mxCell id="F6kOEsD1kym6dUDhs5XA-57" style="edgeStyle=orthogonalEdgeStyle;rounded=1;orthogonalLoop=1;jettySize=auto;html=1;exitX=0;exitY=0.5;exitDx=0;exitDy=0;strokeColor=default;endArrow=none;endFill=0;targetPerimeterSpacing=5;sourcePerimeterSpacing=5;jumpStyle=none;" parent="WIyWlLk6GJQsqaUBKTNV-1" source="F6kOEsD1kym6dUDhs5XA-55" edge="1">
          <mxGeometry relative="1" as="geometry">
            <mxPoint x="45" y="120" as="targetPoint" />
          </mxGeometry>
        </mxCell>
        <mxCell id="F6kOEsD1kym6dUDhs5XA-55" value="&lt;u&gt;assert current_floor == rest_floor&lt;/u&gt;" style="text;html=1;strokeColor=none;fillColor=none;align=center;verticalAlign=middle;whiteSpace=wrap;rounded=0;" parent="WIyWlLk6GJQsqaUBKTNV-1" vertex="1">
          <mxGeometry x="90" y="130" width="60" height="30" as="geometry" />
        </mxCell>
      </root>
    </mxGraphModel>
  </diagram>
</mxfile>
